<svg xmlns="http://www.w3.org/2000/svg" xmlns:xlink="http://www.w3.org/1999/xlink">
  <defs>
    <symbol viewBox="0 0 28.3 28.3" id="add-user">
     <path fill-rule="evenodd" clip-rule="evenodd" d="M5 14H15C17.7614 14 20 16.2386 20 19C20 19.5523 19.5523 20 19 20C18.4872 20 18.0645 19.614 18.0067 19.1166L17.9949 18.8237C17.907 17.3072 16.6928 16.093 15.1763 16.0051L15 16H5C3.34315 16 2 17.3431 2 19C2 19.5523 1.55228 20 1 20C0.447715 20 0 19.5523 0 19C0 16.3112 2.12231 14.1182 4.78311 14.0046L5 14ZM10 0C10.4062 0 10.8078 0.0405124 11.2004 0.120294C11.7416 0.230293 12.0912 0.75821 11.9812 1.29943C11.8712 1.84065 11.3432 2.19022 10.802 2.08022C10.5404 2.02705 10.2722 2 10 2C7.79086 2 6 3.79086 6 6C6 8.20914 7.79086 10 10 10C11.2748 10 12.4482 9.40081 13.2001 8.40038C13.5319 7.95889 14.1588 7.86999 14.6003 8.20181C15.0418 8.53363 15.1307 9.16053 14.7989 9.60202C13.6731 11.0999 11.9104 12 10 12C6.68629 12 4 9.31371 4 6C4 2.68629 6.68629 0 10 0ZM17 0C17.5523 0 18 0.447715 18 1V2H19C19.5523 2 20 2.44772 20 3C20 3.55228 19.5523 4 19 4H18V5C18 5.55228 17.5523 6 17 6C16.4477 6 16 5.55228 16 5V4H15C14.4477 4 14 3.55228 14 3C14 2.44772 14.4477 2 15 2H16V1C16 0.447715 16.4477 0 17 0Z" fill="#1A1A1A"/>
    </symbol>
    <symbol viewBox="0 0 28.3 28.3" id="time-clock">
      <path fill-rule="evenodd" clip-rule="evenodd" d="M9 2C11.0004 2 12.8485 2.65266 14.3427 3.75666L14.2929 3.70711C13.9024 3.31658 13.9024 2.68342 14.2929 2.29289C14.6534 1.93241 15.2206 1.90468 15.6129 2.2097L15.7071 2.29289L17.7071 4.29289C18.0976 4.68342 18.0976 5.31658 17.7071 5.70711C17.3466 6.06759 16.7794 6.09532 16.3871 5.7903L16.2929 5.70711L16.2433 5.65729C17.3473 7.15154 18 8.99955 18 11C18 15.9706 13.9706 20 9 20C4.02944 20 0 15.9706 0 11C0 6.02944 4.02944 2 9 2ZM9 4C5.13401 4 2 7.13401 2 11C2 14.866 5.13401 18 9 18C12.866 18 16 14.866 16 11C16 7.13401 12.866 4 9 4ZM9 6C9.55229 6 10 6.44772 10 7V11C10 11.5523 9.55229 12 9 12C8.44771 12 8 11.5523 8 11V7C8 6.44772 8.44771 6 9 6ZM12 0C12.5523 0 13 0.447715 13 1C13 1.55228 12.5523 2 12 2H6C5.44772 2 5 1.55228 5 1C5 0.447715 5.44772 0 6 0H12Z" fill="#1A1A1A"/>
    </symbol>
  </defs>
</svg>
